# File created by Blade
# Date/Time:  Tue Sep 23 19:06:47 2014
# Frame Rate: 120.000 fps
#------------------------------------------------------
:FULLY-SPECIFIED
:DEGREES
766
root 3.420773 34.541318 -3.339297 58.806294 -13.818901 -36.577223
Spine -35.698401 30.261502 18.524530
Head -18.965534 3.824971 -3.058608
LeftShoulder -19.323607 24.403160 33.782820
LeftArm 32.808832 -73.387152 -8.802265
LeftForeArm 100.848895 0.000000 6.479591
LeftHand -21.458564 -0.000000 66.743156
LeftHandThumb1 -26.253704 0.000000 33.147579
RightShoulder -2.095020 -21.360183 -17.702310
RightArm 83.372990 41.837263 117.878842
RightForeArm 82.625269 -0.000000 18.570134
RightHand 24.954127 0.000000 -16.660772
RightHandThumb1 -24.326973 -0.000000 -32.862282
LeftUpLeg -42.987597 19.756176 20.400289
LeftLeg 12.665795 -0.000000 -0.000000
LeftFoot -4.936498 16.919290 9.639622
LeftToeBase -6.131096 -0.000000 0.000000
RightUpLeg -140.222293 -44.528649 32.309300
RightLeg 15.939506 -0.000000 -0.000000
RightFoot 33.456362 -11.483443 3.741053
RightToeBase 32.047410 -0.000000 -0.000000
767
root 3.429858 34.511854 -3.289214 58.662135 -14.119111 -36.027867
Spine -35.758426 29.916220 18.128168
Head -18.770676 3.797274 -3.319283
LeftShoulder -19.140038 24.494232 33.989541
LeftArm 32.657564 -72.769880 -9.235547
LeftForeArm 101.364622 -0.000000 6.286448
LeftHand -21.941244 -0.000000 67.090512
LeftHandThumb1 -26.253704 0.000000 33.147579
RightShoulder -1.756764 -21.463285 -17.418942
RightArm 80.781017 41.015283 112.763054
RightForeArm 86.790687 0.000000 14.714126
RightHand 25.354697 0.000000 -13.817820
RightHandThumb1 -24.326973 -0.000000 -32.862282
LeftUpLeg -42.950043 19.492957 19.801789
LeftLeg 12.603405 -0.000000 -0.000000
LeftFoot -5.023245 16.567513 9.566075
LeftToeBase -6.177774 -0.000000 0.000000
RightUpLeg -136.944740 -45.426228 29.239236
RightLeg 15.957242 -0.000000 -0.000000
RightFoot 33.210954 -10.810628 3.844420
RightToeBase 32.350573 -0.000000 -0.000000
768
root 3.436604 34.482737 -3.243209 58.564191 -14.411973 -35.509158
Spine -35.855315 29.590715 17.723462
Head -18.587263 3.781867 -3.510791
LeftShoulder -19.078723 24.590560 34.152330
LeftArm 32.922069 -72.134951 -10.002311
LeftForeArm 101.175952 0.000000 6.169977
LeftHand -21.780238 -0.000000 67.003259
LeftHandThumb1 -26.253704 0.000000 33.147579
RightShoulder -1.554737 -21.633828 -17.541672
RightArm 79.597358 40.442765 111.932788
RightForeArm 85.917300 0.000000 13.589774
RightHand 25.212874 -0.000000 -14.266081
RightHandThumb1 -24.326973 -0.000000 -32.862282
LeftUpLeg -42.935363 19.196160 19.275816
LeftLeg 12.558822 -0.000000 -0.000000
LeftFoot -5.102637 16.301566 9.457165
LeftToeBase -6.266026 -0.000000 0.000000
RightUpLeg -134.132851 -45.725416 26.562707
RightLeg 16.241616 -0.000000 -0.000000
RightFoot 33.078242 -10.548425 3.694330
RightToeBase 32.442349 -0.000000 -0.000000
769
root 3.438733 34.455111 -3.190311 58.381397 -14.713778 -35.105208
Spine -35.782582 29.296010 17.512270
Head -18.349798 3.719277 -3.742434
LeftShoulder -19.010730 24.697521 34.152241
LeftArm 32.700293 -71.512714 -10.077061
LeftForeArm 101.150787 -0.000000 5.848434
LeftHand -21.655042 -0.000000 67.007238
LeftHandThumb1 -26.253704 0.000000 33.147579
RightShoulder -1.328806 -21.791935 -17.575649
RightArm 78.147322 39.807554 110.012315
RightForeArm 85.122534 0.000000 12.277085
RightHand 25.361925 -0.000000 -15.567157
RightHandThumb1 -24.326973 -0.000000 -32.862282
LeftUpLeg -42.750991 18.996379 18.849570
LeftLeg 12.509182 -0.000000 -0.000000
LeftFoot -5.221605 16.032032 9.443242
LeftToeBase -6.619262 -0.000000 0.000000
RightUpLeg -131.035517 -45.795790 23.829973
RightLeg 16.211569 -0.000000 -0.000000
RightFoot 33.179382 -10.454904 3.536652
RightToeBase 32.717811 -0.000000 -0.000000
770
root 3.441450 34.424431 -3.136224 58.199197 -14.857278 -34.580269
Spine -35.777943 28.806009 17.383492
Head -18.116183 3.670147 -3.978528
LeftShoulder -18.985576 24.785476 34.205128
LeftArm 32.812343 -71.012238 -10.758129
LeftForeArm 100.758749 0.000000 5.904868
LeftHand -21.148488 -0.000000 66.734320
LeftHandThumb1 -26.253704 0.000000 33.147579
RightShoulder -1.068161 -21.972227 -17.528682
RightArm 76.884877 39.042831 107.844347
RightForeArm 84.679965 -0.000000 10.776194
RightHand 25.490336 0.000000 -16.993416
RightHandThumb1 -24.326973 -0.000000 -32.862282
LeftUpLeg -42.675932 18.541995 18.513883
LeftLeg 12.503752 -0.000000 -0.000000
LeftFoot -5.309269 15.803915 9.264283
LeftToeBase -6.479667 -0.000000 0.000000
RightUpLeg -128.380851 -45.766264 21.600364
RightLeg 16.368788 -0.000000 -0.000000
RightFoot 32.950706 -10.219179 3.536185
RightToeBase 32.872235 -0.000000 -0.000000
771
root 3.444009 34.393351 -3.089427 58.097337 -15.171337 -34.118289
Spine -35.794039 28.460221 17.137400
Head -17.808459 3.589729 -4.242584
LeftShoulder -18.827618 24.738921 34.344222
LeftArm 32.432828 -70.337373 -10.981295
LeftForeArm 100.288561 -0.000000 5.860252
LeftHand -20.591479 -0.000000 66.493365
LeftHandThumb1 -26.253704 0.000000 33.147579
RightShoulder -0.764047 -22.087312 -17.477554
RightArm 75.624051 38.209058 105.577105
RightForeArm 85.252273 -0.000000 9.133459
RightHand 25.305627 -0.000000 -17.633906
RightHandThumb1 -24.326973 -0.000000 -32.862282
LeftUpLeg -42.601333 18.254511 18.079864
LeftLeg 12.490459 -0.000000 -0.000000
LeftFoot -5.430021 15.551326 9.128777
LeftToeBase -6.583073 -0.000000 0.000000
RightUpLeg -126.030948 -45.260771 19.581654
RightLeg 16.573919 -0.000000 -0.000000
RightFoot 32.889415 -10.199106 3.375021
RightToeBase 32.917565 -0.000000 -0.000000
772
root 3.445234 34.358759 -3.027601 57.898631 -15.441149 -33.548678
Spine -35.762940 27.960303 16.973399
Head -17.505589 3.494795 -4.589572
LeftShoulder -18.658622 24.823307 34.364324
LeftArm 31.875554 -69.852683 -11.067132
LeftForeArm 100.308796 -0.000000 5.808113
LeftHand -20.539471 -0.000000 66.467156
LeftHandThumb1 -26.253704 0.000000 33.147579
RightShoulder -0.474062 -22.211409 -17.413357
RightArm 74.889887 37.386042 104.113978
RightForeArm 85.566159 -0.000000 7.800761
RightHand 25.033433 -0.000000 -18.489092
RightHandThumb1 -24.326973 -0.000000 -32.862282
LeftUpLeg -42.471004 17.875103 17.580512
LeftLeg 12.422512 -0.000000 -0.000000
LeftFoot -5.520397 15.348573 9.153214
LeftToeBase -6.890455 -0.000000 0.000000
RightUpLeg -124.039383 -44.677471 18.010383
RightLeg 16.900623 -0.000000 -0.000000
RightFoot 32.681150 -10.104626 3.558545
RightToeBase 33.090723 -0.000000 -0.000000
773
root 3.444085 34.327323 -2.965600 57.700264 -15.643279 -33.138328
Spine -35.624862 27.561558 17.035887
Head -17.188604 3.345629 -5.041264
LeftShoulder -18.578196 25.034045 34.183638
LeftArm 31.731966 -69.681239 -11.510930
LeftForeArm 100.021979 -0.000000 5.838274
LeftHand -20.017697 -0.000000 66.080594
LeftHandThumb1 -26.253704 0.000000 33.147579
RightShoulder -0.214262 -22.355383 -17.420240
RightArm 74.333278 36.480984 102.984352
RightForeArm 86.184198 0.000000 6.653682
RightHand 24.752121 -0.000000 -19.321119
RightHandThumb1 -24.326973 -0.000000 -32.862282
LeftUpLeg -42.303531 17.611563 17.218319
LeftLeg 12.411653 -0.000000 -0.000000
LeftFoot -5.661501 15.102062 9.082980
LeftToeBase -6.991465 -0.000000 0.000000
RightUpLeg -122.196364 -43.840622 16.873794
RightLeg 17.315345 -0.000000 -0.000000
RightFoot 32.433155 -9.919387 3.868159
RightToeBase 33.072633 -0.000000 -0.000000
774
root 3.440660 34.295707 -2.903442 57.455870 -15.898904 -32.753372
Spine -35.403312 27.230383 17.085183
Head -16.908572 3.167503 -5.522698
LeftShoulder -18.439363 25.060455 34.023668
LeftArm 31.464150 -69.382645 -11.837420
LeftForeArm 99.772308 -0.000000 5.876960
LeftHand -19.862915 -0.000000 65.942749
LeftHandThumb1 -26.253704 0.000000 33.147579
RightShoulder -0.042592 -22.635994 -17.422400
RightArm 74.113920 35.524725 102.321371
RightForeArm 86.757886 0.000000 5.651504
RightHand 25.576302 0.000000 -14.490580
RightHandThumb1 -24.326973 -0.000000 -32.862282
LeftUpLeg -42.066592 17.408066 16.826747
LeftLeg 12.401879 -0.000000 -0.000000
LeftFoot -5.789115 14.811845 8.969480
LeftToeBase -6.904889 -0.000000 0.000000
RightUpLeg -120.393336 -42.891529 15.787306
RightLeg 17.777697 -0.000000 -0.000000
RightFoot 32.544724 -9.668652 4.091058
RightToeBase 32.745146 -0.000000 -0.000000
775
root 3.435825 34.265404 -2.823673 57.152937 -16.017453 -32.451297
Spine -35.113563 26.918525 17.377772
Head -16.650733 2.983613 -6.109141
LeftShoulder -18.377827 25.178499 33.721109
LeftArm 31.801979 -69.293979 -12.680093
LeftForeArm 99.962734 -0.000000 5.805478
LeftHand -19.979600 0.000000 65.879355
LeftHandThumb1 -26.253704 0.000000 33.147579
RightShoulder 0.043658 -22.979721 -17.411264
RightArm 73.968870 34.474678 101.651085
RightForeArm 87.185512 0.000000 4.658176
RightHand 24.378375 -0.000000 -12.003690
RightHandThumb1 -24.326973 -0.000000 -32.862282
LeftUpLeg -41.713279 17.158254 16.618642
LeftLeg 12.356688 -0.000000 -0.000000
LeftFoot -5.950600 14.624701 8.994709
LeftToeBase -6.969463 -0.000000 0.000000
RightUpLeg -118.586006 -41.929756 14.978321
RightLeg 18.280341 -0.000000 -0.000000
RightFoot 32.735773 -9.435202 4.414421
RightToeBase 32.590870 -0.000000 -0.000000
776
root 3.430773 34.227442 -2.764586 56.909452 -16.391894 -32.011424
Spine -34.908459 26.640342 17.249719
Head -16.378947 2.815545 -6.565619
LeftShoulder -18.272318 25.272684 33.602340
LeftArm 32.343741 -69.316225 -13.932772
LeftForeArm 99.896265 -0.000000 5.870465
LeftHand -20.015936 0.000000 65.857736
LeftHandThumb1 -26.253704 0.000000 33.147579
RightShoulder 0.152353 -23.405499 -17.388916
RightArm 73.871445 33.436003 101.055928
RightForeArm 87.253925 0.000000 4.127662
RightHand 23.241041 -0.000000 -11.874665
RightHandThumb1 -24.326973 -0.000000 -32.862282
LeftUpLeg -41.483201 16.956319 16.104986
LeftLeg 12.365557 -0.000000 -0.000000
LeftFoot -6.119536 14.422996 8.883236
LeftToeBase -7.092470 -0.000000 0.000000
RightUpLeg -116.983637 -40.868171 13.991441
RightLeg 18.744770 -0.000000 -0.000000
RightFoot 33.238691 -9.490641 4.928025
RightToeBase 32.336082 -0.000000 -0.000000
777
root 3.420080 34.185181 -2.698529 56.522761 -16.657169 -31.521155
Spine -34.604936 26.243552 17.243156
Head -16.104735 2.640431 -6.995431
LeftShoulder -18.089546 25.175685 33.534524
LeftArm 32.548559 -69.149186 -14.884070
LeftForeArm 99.518193 -0.000000 5.990852
LeftHand -19.667154 -0.000000 65.695413
LeftHandThumb1 -26.253704 0.000000 33.147579
RightShoulder 0.262039 -23.822262 -17.420805
RightArm 73.653531 32.311961 100.237783
RightForeArm 86.927583 0.000000 3.482506
RightHand 23.070946 -0.000000 -10.350483
RightHandThumb1 -24.326973 -0.000000 -32.862282
LeftUpLeg -41.189070 16.663694 15.663814
LeftLeg 12.446441 -0.000000 -0.000000
LeftFoot -6.336293 14.214154 8.821114
LeftToeBase -7.181747 -0.000000 0.000000
RightUpLeg -115.448547 -39.869538 13.231571
RightLeg 19.277174 -0.000000 -0.000000
RightFoot 33.784855 -9.353388 5.322588
RightToeBase 32.707848 -0.000000 -0.000000
